<svg width="1111" height="153" viewBox="0 0 1111 153" fill="none" xmlns="http://www.w3.org/2000/svg">
<path d="M42.912 80.728C46.496 81.368 49.536 83.256 52.032 86.392C54.528 89.528 55.776 93.08 55.776 97.048C55.776 100.44 54.88 103.512 53.088 106.264C51.36 108.952 48.832 111.096 45.504 112.696C42.176 114.232 38.304 115 33.888 115H7.2V48.28H32.64C37.184 48.28 41.088 49.048 44.352 50.584C47.616 52.12 50.08 54.2 51.744 56.824C53.408 59.384 54.24 62.264 54.24 65.464C54.24 69.304 53.216 72.504 51.168 75.064C49.12 77.624 46.368 79.512 42.912 80.728ZM18.144 76.312H31.68C35.264 76.312 38.048 75.512 40.032 73.912C42.08 72.248 43.104 69.88 43.104 66.808C43.104 63.8 42.08 61.464 40.032 59.8C38.048 58.072 35.264 57.208 31.68 57.208H18.144V76.312ZM32.928 106.072C36.64 106.072 39.552 105.176 41.664 103.384C43.776 101.592 44.832 99.096 44.832 95.896C44.832 92.632 43.712 90.04 41.472 88.12C39.232 86.2 36.256 85.24 32.544 85.24H18.144V106.072H32.928ZM224.053 101.368H196.117L191.317 115H179.893L203.797 48.184H216.469L240.373 115H228.853L224.053 101.368ZM220.981 92.44L210.133 61.432L199.189 92.44H220.981ZM548.248 101.368H520.312L515.512 115H504.088L527.992 48.184H540.664L564.568 115H553.048L548.248 101.368ZM545.176 92.44L534.328 61.432L523.384 92.44H545.176ZM745.937 115H734.993L702.065 65.176V115H691.121V48.184H702.065L734.993 97.912V48.184H745.937V115ZM872.821 81.496C872.821 74.968 874.325 69.112 877.333 63.928C880.405 58.744 884.533 54.712 889.717 51.832C894.965 48.888 900.693 47.416 906.901 47.416C914.005 47.416 920.309 49.176 925.813 52.696C931.381 56.152 935.413 61.08 937.909 67.48H924.757C923.029 63.96 920.629 61.336 917.557 59.608C914.485 57.88 910.933 57.016 906.901 57.016C902.485 57.016 898.549 58.008 895.093 59.992C891.637 61.976 888.917 64.824 886.933 68.536C885.013 72.248 884.053 76.568 884.053 81.496C884.053 86.424 885.013 90.744 886.933 94.456C888.917 98.168 891.637 101.048 895.093 103.096C898.549 105.08 902.485 106.072 906.901 106.072C910.933 106.072 914.485 105.208 917.557 103.48C920.629 101.752 923.029 99.128 924.757 95.608H937.909C935.413 102.008 931.381 106.936 925.813 110.392C920.309 113.848 914.005 115.576 906.901 115.576C900.629 115.576 894.901 114.136 889.717 111.256C884.533 108.312 880.405 104.248 877.333 99.064C874.325 93.88 872.821 88.024 872.821 81.496ZM1077.82 57.112V76.696H1100.86V85.624H1077.82V106.072H1103.74V115H1066.88V48.184H1103.74V57.112H1077.82Z" fill="white"/>
<path d="M380.745 103.832L400.916 93.7271L404.872 101.624L374.916 116.631L345.031 56.9778L354.816 52.0758L380.745 103.832Z" fill="white"/>
</svg>
